<?xml version="1.0" encoding="utf-8"?>
<!-- Generator: Adobe Illustrator 24.1.2, SVG Export Plug-In . SVG Version: 6.00 Build 0)  -->
<svg version="1.1" id="Warstwa_3" xmlns="http://www.w3.org/2000/svg" xmlns:xlink="http://www.w3.org/1999/xlink" x="0px" y="0px"
	 viewBox="0 0 430 430" style="enable-background:new 0 0 430 430;" xml:space="preserve">
<style type="text/css">
	.st0{fill:#1c79b8;}
	.st1{fill:#090229;}
	.st2{fill:none;stroke:#08a88a;stroke-width:12.95;stroke-linecap:round;stroke-linejoin:round;stroke-miterlimit:14.8;}
	.st3{fill:none;}
</style>
<g>
	<path class="st1" d="M215.2,394.35c-24.7,0-44.8-20.1-44.8-44.8c0-4.18,0.58-8.32,1.71-12.29c0.96-3.34,4.45-5.28,7.79-4.32
		c3.34,0.96,5.28,4.45,4.32,7.79c-0.81,2.84-1.23,5.8-1.23,8.81c0,17.75,14.44,32.2,32.2,32.2s32.2-14.45,32.2-32.2
		c0-3.01-0.41-5.97-1.23-8.81c-0.96-3.34,0.98-6.83,4.32-7.79c3.35-0.96,6.83,0.98,7.79,4.32c1.14,3.97,1.71,8.1,1.71,12.29
		C260,374.25,239.9,394.35,215.2,394.35z"/>
	<path class="st0" d="M70.81,345.31c-2.28,0-4.39-1.24-5.5-3.23c-1.8-3.23-0.67-5.09,2.07-9.59c1.27-2.08,3.1-5.07,5.37-8.77
		c4.53-7.39,10.8-17.59,17.73-28.84c12.61-20.48,21.74-35.55,24.2-39.84c-0.04-7.72-0.2-42.78-0.42-87.4
		c-0.11-23.84,9.42-46.61,26.86-64.13c14.25-14.32,32.94-24.12,53.24-28.25V53.07c0-9.77,9.57-17.42,21.8-17.42
		s21.8,7.68,21.8,17.49v22.01c18.94,3.7,36.37,12.25,50.44,24.95c19.5,17.6,30.24,41.04,30.24,66l0,0l0,0l0,85.8
		c2.25,4.28,10.75,19.9,22.62,41.43c12.66,22.97,22.88,41.51,23.41,42.46c1.05,1.85,1.11,4.11,0.12,6.02
		c-1.76,3.39-4.73,3.4-7.61,3.42c-1.34,0.01-3.31,0.01-5.84,0.02c-5.06,0.01-12.39,0.02-21.43,0.03
		c-18.09,0.02-43.07,0.03-70.65,0.03l-88.33,0.01C115.73,345.31,70.87,345.31,70.81,345.31z M216.24,85.66
		c-25.15,0-49.28,9.75-66.19,26.74c-15.05,15.12-23.29,34.72-23.19,55.18c0.23,46.98,0.43,88.57,0.43,89.02
		c0.01,2.3,0.01,2.54-26.08,44.9c-8.18,13.28-14.82,24.09-19.19,31.22l177.23-0.02c42.16,0,73.83-0.03,89.29-0.05
		c-3.42-6.21-9.05-16.41-18.32-33.23c-24.18-43.88-24.18-43.88-24.18-46.04l0-87.28c0-21.35-9.26-41.46-26.08-56.65
		C262.96,94.11,240.33,85.66,216.24,85.66z M216.16,48.25c-5.53,0-9.2,2.9-9.2,4.82v20.38c6.1-0.52,12.32-0.52,18.4-0.03V53.14
		C225.36,51.15,221.78,48.25,216.16,48.25z"/>
</g>
</svg>
