<?xml version="1.0" encoding="utf-8"?>
<!-- Generator: Adobe Illustrator 24.1.2, SVG Export Plug-In . SVG Version: 6.00 Build 0)  -->
<svg version="1.1" id="Warstwa_3" xmlns="http://www.w3.org/2000/svg" xmlns:xlink="http://www.w3.org/1999/xlink" x="0px" y="0px"
	 viewBox="0 0 430 430" style="enable-background:new 0 0 430 430;" xml:space="preserve">
<style type="text/css">
	.st0{fill:#090229;}
	.st1{fill:#1c79b8;}
	.st2{fill:none;}
	.st3{fill:#08a88a;fill-opacity:0;}
</style>
<g>
	<path class="st0" d="M215,301.36H108.25c-3.48,0-6.3-2.82-6.3-6.3v-67.61c0-3.48,2.82-6.3,6.3-6.3H215c3.48,0,6.3,2.82,6.3,6.3
		v67.61C221.3,298.54,218.48,301.36,215,301.36z M114.55,288.76h94.15v-55.01h-94.15V288.76z"/>
	<path class="st0" d="M321.75,354.73c-3.48,0-6.3-2.82-6.3-6.3V234.64h-67.78v113.79c0,3.48-2.82,6.3-6.3,6.3s-6.3-2.82-6.3-6.3
		V228.34c0-3.48,2.82-6.3,6.3-6.3h80.38c3.48,0,6.3,2.82,6.3,6.3v120.09C328.05,351.91,325.23,354.73,321.75,354.73z"/>
	<path class="st1" d="M348.43,354.73H81.57c-3.48,0-6.3-2.82-6.3-6.3V190.98c0-3.48,2.82-6.3,6.3-6.3s6.3,2.82,6.3,6.3v151.15
		h254.27V190.98c0-3.48,2.82-6.3,6.3-6.3s6.3,2.82,6.3,6.3v157.45C354.73,351.91,351.91,354.73,348.43,354.73z"/>
	<path class="st1" d="M343.09,197.28c-21.13,0-38.32-17.19-38.32-38.32c0-3.48,2.82-6.3,6.3-6.3s6.3,2.82,6.3,6.3
		c0,14.18,11.54,25.72,25.72,25.72c13.85,0,25.18-11,25.71-24.72l-24.86-72.09H86.06L61.2,159.96
		c0.53,13.72,11.86,24.72,25.71,24.72c14.18,0,25.72-11.54,25.72-25.72c0-3.48,2.82-6.3,6.3-6.3s6.3,2.82,6.3,6.3
		c0,21.13-17.19,38.32-38.32,38.32c-21.13,0-38.32-17.19-38.32-38.32c0-0.7,0.12-1.39,0.34-2.05l26.69-77.39
		c0.88-2.54,3.27-4.25,5.96-4.25h266.87c2.69,0,5.08,1.71,5.96,4.25l26.69,77.39c0.23,0.66,0.34,1.35,0.34,2.05
		C381.42,180.09,364.23,197.28,343.09,197.28z"/>
	<path class="st1" d="M215,197.28c-21.13,0-38.32-17.19-38.32-38.32c0-3.48,2.82-6.3,6.3-6.3s6.3,2.82,6.3,6.3
		c0,14.18,11.54,25.72,25.72,25.72s25.72-11.54,25.72-25.72c0-3.48,2.82-6.3,6.3-6.3s6.3,2.82,6.3,6.3
		C253.32,180.09,236.13,197.28,215,197.28z"/>
	<path class="st1" d="M279.05,197.28c-21.06,0-38.2-17.07-38.32-38.1L235.4,82c-0.24-3.47,2.38-6.48,5.85-6.72
		c3.44-0.24,6.48,2.38,6.72,5.85l5.34,77.39c0.01,0.14,0.01,0.29,0.01,0.43c0,14.18,11.54,25.72,25.72,25.72
		c13.98,0,25.39-11.21,25.72-25.11l-15.87-76.73c-0.71-3.41,1.49-6.74,4.89-7.45c3.41-0.7,6.74,1.49,7.45,4.89l16.01,77.39
		c0.09,0.42,0.13,0.85,0.13,1.28C317.37,180.09,300.18,197.28,279.05,197.28z"/>
	<path class="st1" d="M150.95,197.28c-21.13,0-38.32-17.19-38.32-38.32c0-0.43,0.04-0.86,0.13-1.28l16.01-77.39
		c0.71-3.41,4.04-5.59,7.45-4.89c3.41,0.71,5.6,4.04,4.89,7.45l-15.87,76.73c0.33,13.9,11.74,25.11,25.72,25.11
		c14.18,0,25.72-11.54,25.72-25.72c0-0.14,0-0.29,0.01-0.43l5.34-77.39c0.24-3.47,3.28-6.09,6.72-5.85
		c3.47,0.24,6.09,3.25,5.85,6.72l-5.32,77.18C189.15,180.21,172.01,197.28,150.95,197.28z"/>
</g>
</svg>
